<svg width="1080" height="1080" viewBox="0 0 1080 1080" fill="none" xmlns="http://www.w3.org/2000/svg">
<path d="M0 302C0 284.327 14.3269 270 32 270H1078C1079.1 270 1080 270.895 1080 272V778C1080 795.673 1065.67 810 1048 810H2.00001C0.895436 810 0 809.105 0 808V302Z" fill="#FAA019"/>
<path d="M249.478 511.25L204.678 605.75C198.145 618.35 189.978 624.65 180.178 624.65C170.611 624.65 162.561 618 156.028 604.7L110.528 511.25V660H61.8781V410.8H109.828L180.178 554.65L250.178 410.8H298.128V660H249.478V511.25ZM557.32 410.8L478.92 646C474.72 656.733 467.253 662.1 456.52 662.1C445.32 662.1 437.62 656.733 433.42 646L356.07 410.8H406.47L456.52 573.2L506.57 410.8H557.32ZM607.039 542.75V511.95C607.039 479.517 615.555 454.2 632.589 436C649.622 417.8 673.189 408.7 703.289 408.7C733.389 408.7 757.539 417.8 775.739 436C788.572 448.833 794.989 468.083 794.989 493.75H749.489C749.489 465.983 734.672 452.1 705.039 452.1C696.172 452.1 688.589 453.85 682.289 457.35C676.222 460.617 671.672 464.467 668.639 468.9C665.605 473.333 663.272 479.867 661.639 488.5C660.005 497.133 659.072 504.367 658.839 510.2C658.605 516.033 658.489 523.85 658.489 533.65C658.489 543.45 658.489 550.1 658.489 553.6C658.722 556.867 659.072 562.35 659.539 570.05C660.239 577.517 661.172 582.883 662.339 586.15C663.739 589.417 665.605 593.617 667.939 598.75C670.505 603.883 673.655 607.5 677.389 609.6C686.955 615.667 697.805 618.7 709.939 618.7C730.239 618.7 744.589 610.067 752.989 592.8V576H722.889V535.4H794.639V610.65C787.405 627.683 775.972 640.517 760.339 649.15C744.705 657.783 726.972 662.1 707.139 662.1C671.905 662.1 646.355 652.3 630.489 632.7C614.855 612.867 607.039 582.883 607.039 542.75ZM1033.94 660H959.74C931.74 660 911.44 654.633 898.84 643.9C886.474 632.933 880.29 615.2 880.29 590.7V410.8H928.94V590.7C928.94 600.5 931.157 607.267 935.59 611C940.024 614.733 948.074 616.6 959.74 616.6H1033.94V660Z" fill="white"/>
</svg>
